#!OML:ASF F:\VICON\USERDATA\INSTALL\rory3\rory3.ASF
:FULLY-SPECIFIED
:DEGREES
32
root -0.34281 18.9527 -13.3031 3.33529 -4.86648 1.51954
lowerback 4.06387 0.967834 -3.22127
upperback -0.333102 1.09689 -1.27648
thorax -2.65778 0.582938 0.423694
lowerneck -9.50592 -4.59026 -8.91437
upperneck 13.9425 -6.08088 7.90574
head 6.30578 -2.83447 3.46957
rclavicle -2.23633e-016 1.94809e-014
rhumerus -34.7464 1.79127 -83.3673
rradius 30.2624
rwrist 16.4597
rhand -22.0617 0.0456651
rfingers 7.12502
rthumb 4.34919 -29.8897
lclavicle -2.23633e-016 1.94809e-014
lhumerus -36.3969 17.4203 73.9178
lradius 24.2678
lwrist -6.52194
lhand -17.7378 27.2678
lfingers 7.12502
lthumb 8.52339 57.0757
rfemur -4.58711 21.0401 18.5284
rtibia 16.0084
rfoot -13.4698 -18.015
rtoes -1.86007
lfemur -2.12738 -8.12236 -20.4511
ltibia 10.5121
lfoot -10.0606 14.6069
ltoes -6.59208
33
root -0.346006 18.9521 -13.31 3.35912 -4.80024 1.51722
lowerback 4.16503 0.942683 -3.23858
upperback -0.293608 1.05942 -1.26384
thorax -2.67328 0.56441 0.447537
lowerneck -9.58662 -4.48119 -8.85835
upperneck 13.9006 -5.92561 7.87091
head 6.28985 -2.75717 3.46232
rclavicle 1.17034e-014 3.18055e-015
rhumerus -34.6724 1.88636 -83.3963
rradius 30.2983
rwrist 16.3718
rhand -22.0746 -0.0527237
rfingers 7.12502
rthumb 4.3367 -29.9883
lclavicle 1.17034e-014 3.18055e-015
lhumerus -36.2575 17.5545 73.915
lradius 24.1708
lwrist -6.5987
lhand -17.7397 26.9945
lfingers 7.12502
lthumb 8.52158 56.8026
rfemur -4.69279 21.0703 18.535
rtibia 16.1359
rfoot -13.5298 -18.086
rtoes -1.80023
lfemur -2.30071 -7.99203 -20.4101
ltibia 10.7166
lfoot -10.0492 14.4083
ltoes -6.47425
34
root -0.348131 18.9513 -13.3187 3.43863 -4.73649 1.5548
lowerback 4.24933 0.928978 -3.25625
upperback -0.295672 1.03576 -1.28649
thorax -2.72195 0.55329 0.434228
lowerneck -9.70046 -4.40558 -8.8674
upperneck 13.9294 -5.82231 7.92974
head 6.31142 -2.70064 3.49099
rclavicle -4.84538e-015 1.15295e-014
rhumerus -34.6871 2.0065 -83.4528
rradius 30.4266
rwrist 16.2745
rhand -22.0273 -0.300386
rfingers 7.12502
rthumb 4.38237 -30.235
lclavicle -4.84538e-015 1.15295e-014
lhumerus -36.2003 17.4836 73.986
lradius 24.2089
lwrist -6.52167
lhand -17.7521 26.5642
lfingers 7.12502
lthumb 8.50954 56.3728
rfemur -4.88787 21.0978 18.4626
rtibia 16.2754
rfoot -13.6057 -18.1341
rtoes -1.64403
lfemur -2.58337 -7.89972 -20.4055
ltibia 10.9884
lfoot -10.1185 14.2273
ltoes -5.86192
35
root -0.350921 18.9502 -13.3299 3.52659 -4.73547 1.56142
lowerback 4.37579 0.922938 -3.27581
upperback -0.331283 1.01959 -1.29638
thorax -2.82944 0.547026 0.433519
lowerneck -9.706 -4.32537 -8.89891
upperneck 13.9019 -5.71697 8.0023
head 6.29715 -2.64589 3.52953
rclavicle -1.31943e-014 -1.07344e-014
rhumerus -34.7509 2.02606 -83.4637
rradius 30.5108
rwrist 16.3032
rhand -22.0022 -0.115183
rfingers 7.12502
rthumb 4.4066 -30.0493
lclavicle -1.31943e-014 -1.07344e-014
lhumerus -36.268 17.3606 74.0548
lradius 24.3658
lwrist -6.40452
lhand -17.6957 26.3813
lfingers 7.12502
lthumb 8.56401 56.1876
rfemur -5.13378 21.1027 18.4188
rtibia 16.4401
rfoot -13.5765 -18.1592
rtoes -1.83022
lfemur -2.8783 -7.8113 -20.3701
ltibia 11.2601
lfoot -10.1524 14.1297
ltoes -5.7471
36
root -0.3513 18.9477 -13.3378 3.58389 -4.73991 1.55319
lowerback 4.51315 0.91435 -3.25118
upperback -0.342686 1.00258 -1.30632
thorax -2.91726 0.539216 0.408278
lowerneck -9.75649 -4.24956 -8.79449
upperneck 13.8858 -5.61232 7.92433
head 6.28618 -2.59443 3.49608
rclavicle -3.75206e-015 6.36111e-015
rhumerus -34.7773 2.07303 -83.492
rradius 30.5461
rwrist 16.2991
rhand -21.9211 -0.0476702
rfingers 7.12502
rthumb 4.48493 -29.9802
lclavicle -3.75206e-015 6.36111e-015
lhumerus -36.302 17.1983 74.1594
lradius 24.4711
lwrist -6.23544
lhand -18.103 26.1748
lfingers 7.12502
lthumb 8.17089 55.9968
rfemur -5.34004 21.0089 18.3933
rtibia 16.638
rfoot -13.5981 -18.1007
rtoes -1.97236
lfemur -3.11028 -7.76221 -20.3425
ltibia 11.5232
lfoot -10.2559 14.0776
ltoes -5.71253
